<?xml version="1.0" encoding="UTF-8" standalone="no"?>
<!-- Created with Inkscape (http://www.inkscape.org/) -->

<svg
   width="300"
   height="300"
   viewBox="0 0 79.374998 79.375"
   version="1.1"
   id="svg1"
   xmlns="http://www.w3.org/2000/svg"
   xmlns:svg="http://www.w3.org/2000/svg">
  <defs
     id="defs1" />
  <g
     id="layer1">
    <rect
       style="fill:#ffffff;fill-opacity:1;stroke-width:0.264583;stroke-dasharray:none;paint-order:fill markers stroke"
       id="rect24-9"
       width="18.520834"
       height="0.79374999"
       x="-22.619976"
       y="39.331032"
       transform="rotate(-90)" />
    <path
       id="rect30-3"
       d="m 40.189815,75.471618 v -35.71875 h -0.79375 v 35.71875 z"
       style="fill:#ffffff;stroke-width:0.141148;paint-order:stroke fill markers" />
    <path
       style="fill:#ffffff;fill-opacity:1;stroke-width:0.393802;stroke-dasharray:none;paint-order:stroke fill markers"
       id="rect30"
       width="41.392239"
       height="5.3317099"
       x="3.96875"
       y="-39.607494"
       transform="matrix(-0.86293351,0,0,0.14887344,78.936457,45.252497)"
       d="m 3.96875,-39.607494 h 41.392239 v 5.33171 H 3.96875 Z" />
    <rect
       style="fill:#666666;stroke-width:0.644198;paint-order:stroke fill markers"
       id="rect1"
       width="79.375"
       height="79.375"
       x="-79.375"
       y="-79.375"
       transform="scale(-1)" />
    <path
       id="path1"
       style="fill:#b3b3b3;fill-opacity:0;fill-rule:nonzero;stroke:#eaeaea;stroke-width:0.804035;stroke-linecap:butt;stroke-dasharray:none;stroke-dashoffset:0;stroke-opacity:1;paint-order:stroke fill markers"
       d="M 6.2761597,40.11735 A 33.655388,34.938921 0 0 1 -27.379232,5.1784295 33.655388,34.938921 0 0 1 6.2761597,-29.760482 33.655388,34.938921 0 0 1 39.931548,5.1784295 33.655388,34.938921 0 0 1 6.2761597,40.11735 Z" />
  </g>
</svg>
